<?xml version="1.0" encoding="utf-8"?>
<!-- Generator: Adobe Illustrator 19.0.0, SVG Export Plug-In . SVG Version: 6.00 Build 0)  -->
<svg version="1.1" id="layer" xmlns="http://www.w3.org/2000/svg" xmlns:xlink="http://www.w3.org/1999/xlink" x="0px" y="0px"
	 viewBox="-153 -46 652 652" style="enable-background:new -153 -46 652 652;" xml:space="preserve">
<style type="text/css">
	.st0{fill:#C6B259;}
	.st1{fill:#64ADD0;}
	.st2{fill:#5B6351;}
	.st3{fill:#273D7D;}
	.st4{fill:#3A504B;}
	.st5{fill:#B36F3E;}
	.st6{fill:#875B94;}
	.st7{fill:#8D7DAD;}
	.st8{fill:#CB3127;}
	.st9{fill:#CC592D;}
	.st10{fill:#005789;}
	.st11{fill:#44888E;}
	.st12{fill:#5E393A;}
	.st13{fill:#898360;}
	.st14{fill:#E26C2D;}
	.st15{fill:#2A5F88;}
	.st16{fill:#FFFFFF;}
</style>
<g>
	<polygon class="st0" points="-50.7,325.9 -42.8,336.3 30.2,336.3 30.2,325.9 	"/>
	<polygon class="st1" points="-42.8,336.3 -34.9,346.7 30.2,346.7 30.2,336.3 	"/>
	<polygon class="st2" points="-34.9,346.7 -27,357.2 30.2,357.2 30.2,346.7 	"/>
	<path class="st3" d="M-37.3,284.1h67.4v-10.4h-70.4C-38.7,276.7-37.6,280.3-37.3,284.1"/>
	<path class="st4" d="M-37.1,287.4c0,2.6-0.2,4.9-0.6,7.2h67.9v-10.4h-67.4C-37.2,285.2-37.1,286.3-37.1,287.4"/>
	<path class="st5" d="M-42,305h72.2v-10.4h-67.9C-38.5,298.7-39.9,302.1-42,305"/>
	<path class="st6" d="M-59.7,314l1.1,1.5h88.7V305h-72.2C-45.8,310-51.7,313-59.7,314"/>
	<polygon class="st7" points="-50.7,325.8 30.2,325.8 30.2,315.4 -58.6,315.4 	"/>
	<polygon class="st8" points="-76.1,242.4 30.2,242.4 30.2,232 -79.6,232 	"/>
	<polygon class="st9" points="-72.7,252.8 30.2,252.8 30.2,242.4 -76.1,242.4 	"/>
	<path class="st10" d="M-70.3,260.3c7.9,0,14.2,0.6,19.4,3h81v-10.4H-72.7L-70.3,260.3z"/>
	<path class="st11" d="M-46.6,265.8c2.6,2.1,4.8,4.7,6.4,7.9h70.4v-10.4h-81C-49.3,263.9-47.9,264.8-46.6,265.8"/>
	<polygon class="st12" points="-83,221.5 30.2,221.5 30.2,211.1 -86.4,211.1 	"/>
	<polygon class="st13" points="-89.8,200.7 -86.4,211.1 30.2,211.1 30.2,200.7 	"/>
	<polygon class="st14" points="-79.6,232 30.2,232 30.2,231.9 30.2,221.5 -83,221.5 	"/>
	<polygon class="st15" points="-107,200.7 -126.2,200.7 -126.2,261 	"/>
	<path class="st15" d="M-53.4,288.8c0-12.1-6.7-14.7-21.1-14.7h-2.9v28.2h2.9C-60.4,302.3-53.4,300.6-53.4,288.8"/>
	<polygon class="st15" points="-78.3,357.2 -44.9,357.2 -76.5,314.6 -78.3,314.6 	"/>
	<polygon class="st15" points="-87.4,260.2 -98.5,223.6 -109.5,260.2 	"/>
	<polygon class="st15" points="-93.3,276.8 -93.3,276.8 -114.5,276.9 -126.2,315 -126.2,357.2 -93.3,357.2 	"/>
	<path class="st16" d="M-126.2,315l11.8-38.1l21.2,0v80.3h15v-42.5h1.8l31.6,42.5h18L-59.6,314c14.9-1.8,22.6-10.7,22.6-26.6
		c0-9.2-3.6-16.9-9.5-21.6c-5.9-4.6-13.5-5.5-23.7-5.5l-19.6-59.6H-107l-19.2,60.4V315z M-53.4,288.8c0,11.8-7,13.5-21.1,13.5h-2.9
		V274h2.9C-60.1,274-53.4,276.7-53.4,288.8 M-98.5,223.6l11.2,36.6h-22.1L-98.5,223.6z"/>
</g>
<path class="st15" d="M100.9,241.5L94.2,220c-0.3-1-1-3.9-2.2-8.8c-1.2,4.8-2,7.8-2.3,8.8l-6.6,21.5H100.9 M80.8,200.7h22.3
	l22.5,65.2h-17.7l-3.3-11.7H79.3L76,265.9H58.3L80.8,200.7z M137.3,200.7h17.2l24.6,33.6c0.6,0.8,2.7,4.7,5.9,11.5
	c-0.6-5.1-1-9.4-1-12.9v-32.2H201v65.2H184l-24.6-33.7c-0.6-0.8-2.7-4.6-5.9-11.4c0.6,5.1,1,9.4,1,12.9v32.2h-17.2V200.7
	 M213.6,200.7h17.2l24.6,33.6c0.6,0.8,2.7,4.7,5.9,11.5c-0.6-5.1-1-9.4-1-12.9v-32.2h17.1v65.2h-17.1l-24.6-33.7
	c-0.6-0.8-2.7-4.6-5.9-11.4c0.6,5.1,1,9.4,1,12.9v32.2h-17.2V200.7 M307.3,200.7v35.4c0,11.6,2.1,16.6,11.3,16.6
	c10.9,0,11.3-6.8,11.3-20.7v-31.3h17.7v38.8c0,19.7-8.3,28.2-29,28.2c-11,0-18.7-2.6-23.4-7.9c-5.2-5.9-5.7-13.6-5.7-23.8v-35.2
	H307.3 M397,241.5l-6.7-21.5c-0.3-1-1-3.9-2.2-8.8c-1.2,4.8-2,7.8-2.3,8.8l-6.6,21.5H397 M377,200.7h22.3l22.5,65.2h-17.7l-3.3-11.7
	h-25.3l-3.4,11.7h-17.7L377,200.7z M433.4,200.7h17.8v50h22.1v15.2h-39.9V200.7 M79.8,322.7c7.5,0,11-2.4,11-8.1c0-6.8-3.4-9-10.8-9
	h-3.6v17.2H79.8 M59.8,291.9h19.7c9,0,16,0.1,21.5,4.4c4.7,3.6,7.3,9.2,7.3,16c0,10.1-5.1,16.6-14.6,18.6l17.8,26.3H91.5l-15-25.5
	v25.5H59.8V291.9z M122.9,291.9h40v14.3h-22.6v11.3h21.4v14h-21.4v11h22.6v14.6h-40V291.9 M171.4,291.9h18.9l13.1,36.5
	c0.3,0.7,1,3.6,2.2,8.8c1.2-5.1,2-8,2.3-8.8l13-36.5h18.9l-27.4,65.2h-13.5L171.4,291.9 M250.9,291.9h18v65.2h-18V291.9z
	 M281.8,291.9h40v14.3h-22.6v11.3h21.4v14h-21.4v11h22.6v14.6h-40V291.9 M391.7,322.9c1.6,5.8,2,9.1,2.1,9.6c0.8-4.1,1.5-7.3,2-9.6
	l7.7-31h18L403,357.1h-16.5l-8-27.8c-0.5-1.6-1.2-4.6-2.2-8.8c-0.8,3.4-1.5,6.3-2.2,8.8l-7.9,27.8h-16.5l-18.4-65.2h18l7.5,31.2
	c0.8,3.3,1.5,6.6,2,9.8c0.6-3.4,1.5-6.7,2.3-9.8l8.2-31.2h14.3L391.7,322.9 M449.1,345c4.9,0,8.1-2.9,8.1-6.8c0-5.2-3.6-6.8-11-8.7
	c-11.8-3.1-17.5-7.8-17.5-18.1c0-12.1,8.9-21.2,22.5-21.2c7.3,0,13.7,1.9,19.3,5.8l-5.6,12.8c-4.1-3.5-8.5-5.2-12.5-5.2
	c-4.4,0-7.2,2.4-7.2,5.5c0,4.7,4.5,5.7,10.4,7.2c11.6,3.1,18,7.4,18,19.4c0,13.6-9.7,23-25,23c-9.2,0-16.1-2.9-23.2-9.6l8-13.2
	C438.8,342,443.9,345,449.1,345"/>
</svg>
