<?xml version="1.0" encoding="UTF-8" standalone="no"?>
<!DOCTYPE svg PUBLIC "-//W3C//DTD SVG 1.1//EN" "http://www.w3.org/Graphics/SVG/1.1/DTD/svg11.dtd">
<svg width="100%" height="100%" viewBox="0 0 278 83" version="1.1" xmlns="http://www.w3.org/2000/svg" xmlns:xlink="http://www.w3.org/1999/xlink" xml:space="preserve" xmlns:serif="http://www.serif.com/" style="fill-rule:evenodd;clip-rule:evenodd;stroke-linejoin:round;stroke-miterlimit:2;">
    <g transform="matrix(1,0,0,1,-615,0)">
        <g id="Trim">
        </g>
        <g id="Artboard3" transform="matrix(1.08575,0,0,0.467775,-52.7746,0)">
            <rect x="615.037" y="0" width="255.4" height="177.008" style="fill:none;"/>
            <clipPath id="_clip1">
                <rect x="615.037" y="0" width="255.4" height="177.008"/>
            </clipPath>
            <g clip-path="url(#_clip1)">
                <g transform="matrix(0.921024,0,0,2.13778,394.914,-831.157)">
                    <path d="M305.285,421.917C305.285,403.624 290.455,388.795 272.163,388.795C253.869,388.795 239.04,403.624 239.04,421.917L239.04,438.478C239.04,456.771 253.869,471.6 272.163,471.6C290.455,471.6 305.285,456.771 305.285,438.478L305.285,421.917Z" style="fill:rgb(206,32,47);fill-rule:nonzero;"/>
                </g>
                <g transform="matrix(0.921024,0,0,2.13778,394.914,-854.032)">
                    <path d="M272.185,413.751L248.139,423.334L296.231,423.334L272.185,413.751ZM297.027,420.492L272.185,410.592L247.344,420.492L247.656,422.122L272.185,412.347L296.714,422.122L297.027,420.492ZM296.231,428.714L296.231,424.638L248.139,424.638L248.139,428.714C249.039,428.714 249.769,429.444 249.769,430.344L249.769,453.167C249.769,454.067 249.04,454.797 248.14,454.797L248.139,460.503L296.231,460.503L296.23,454.797C295.33,454.797 294.601,454.067 294.601,453.167L294.601,430.344C294.601,429.444 295.331,428.714 296.231,428.714M278.298,430.342C278.299,429.443 279.029,428.714 279.929,428.714L280.744,428.714C281.643,428.714 282.373,429.442 282.374,430.341L282.374,453.171C282.372,454.069 281.643,454.797 280.745,454.797L279.928,454.797C279.028,454.797 278.299,454.068 278.298,453.168L278.298,430.342ZM270.147,430.341C270.149,429.442 270.878,428.714 271.777,428.714L272.593,428.714C273.493,428.714 274.222,429.442 274.223,430.342L274.223,453.17C274.221,454.069 273.493,454.797 272.593,454.797L271.777,454.797C270.877,454.797 270.148,454.068 270.147,453.169L270.147,430.341ZM261.996,430.341C261.998,429.442 262.727,428.714 263.626,428.714L264.441,428.714C265.342,428.714 266.071,429.443 266.072,430.343L266.072,453.169C266.071,454.068 265.342,454.797 264.442,454.797L263.625,454.797C262.726,454.797 261.997,454.068 261.996,453.169L261.996,430.341ZM253.845,430.34C253.847,429.441 254.576,428.714 255.475,428.714L256.29,428.714C257.191,428.714 257.92,429.444 257.92,430.344L257.92,453.168C257.92,454.068 257.191,454.797 256.291,454.797L255.474,454.797C254.575,454.797 253.846,454.069 253.845,453.17L253.845,430.34ZM290.525,458.302L253.845,458.302L253.845,456.998L290.525,456.998L290.525,458.302ZM290.525,453.172C290.523,454.07 289.794,454.797 288.896,454.797L288.079,454.797C287.179,454.797 286.45,454.067 286.45,453.167L286.45,430.343C286.45,429.443 287.18,428.714 288.08,428.714L288.895,428.714C289.794,428.714 290.523,429.441 290.525,430.34L290.525,453.172Z" style="fill:white;fill-rule:nonzero;"/>
                </g>
                <g transform="matrix(0.921024,0,0,2.13778,394.914,-713.309)">
                    <path d="M257.943,400.633L258.148,401.565L259.155,401.086L259.176,401.086L259.176,405.286L260.374,405.286L260.374,399.981L259.355,399.981L257.943,400.633ZM285.448,402.445L285.448,402.421C285.979,402.161 286.222,401.711 286.222,401.253C286.222,400.611 285.713,399.891 284.472,399.891L284.462,399.891C283.411,399.891 282.6,400.488 282.6,401.384C282.6,401.852 282.857,402.28 283.369,402.551L283.369,402.57C282.793,402.821 282.424,403.262 282.424,403.899C282.424,404.617 283.046,405.377 284.391,405.377C285.625,405.377 286.428,404.722 286.428,403.759C286.428,403.086 285.973,402.642 285.448,402.445M284.431,400.733L284.441,400.733C284.886,400.733 285.074,401.059 285.074,401.393C285.074,401.718 284.822,401.98 284.537,402.061C284.114,401.932 283.797,401.702 283.797,401.344C283.797,401.017 284.003,400.733 284.431,400.733M284.448,404.518L284.439,404.518C283.982,404.518 283.69,404.159 283.699,403.777C283.699,403.392 283.933,403.101 284.344,402.987C284.823,403.115 285.172,403.392 285.172,403.857C285.172,404.235 284.88,404.518 284.448,404.518M268.594,402.445L268.594,402.421C269.12,402.161 269.368,401.711 269.368,401.253C269.368,400.611 268.853,399.891 267.616,399.891L267.605,399.891C266.553,399.891 265.746,400.488 265.746,401.384C265.746,401.852 265.998,402.28 266.517,402.551L266.517,402.57C265.931,402.821 265.566,403.262 265.566,403.899C265.566,404.617 266.188,405.377 267.532,405.377C268.763,405.377 269.573,404.722 269.573,403.759C269.573,403.086 269.113,402.642 268.594,402.445M267.573,400.733L267.584,400.733C268.028,400.733 268.216,401.059 268.216,401.393C268.216,401.718 267.964,401.98 267.68,402.061C267.253,401.932 266.938,401.702 266.938,401.344C266.938,401.017 267.147,400.733 267.573,400.733M267.589,404.518L267.582,404.518C267.127,404.518 266.83,404.159 266.84,403.777C266.84,403.392 267.075,403.101 267.483,402.987C267.965,403.115 268.316,403.392 268.316,403.857C268.316,404.235 268.02,404.518 267.589,404.518M277.257,399.981L275.736,399.981L273.736,403.215L273.736,404.021L276.086,404.021L276.086,405.286L277.257,405.286L277.257,404.021L277.889,404.021L277.889,403.09L277.257,403.09L277.257,399.981ZM276.086,401.916L276.086,403.09L274.884,403.09L274.893,403.073L275.591,401.916C275.772,401.582 275.92,401.268 276.091,400.927L276.117,400.927C276.098,401.268 276.086,401.596 276.086,401.916" style="fill:white;fill-rule:nonzero;"/>
                </g>
                <g transform="matrix(0.921024,0,0,2.13778,394.914,-677.918)">
                    <path d="M296.231,393.632L296.924,393.632L296.924,395.512L297.432,395.512L297.432,393.632L298.122,393.632L298.122,393.202L296.231,393.202L296.231,393.632ZM300.161,393.203L299.649,394.791L299.644,394.791L299.105,393.203L298.39,393.203L298.39,395.51L298.865,395.51L298.865,393.892L298.871,393.892L299.436,395.51L299.828,395.51L300.393,393.875L300.402,393.875L300.402,395.51L300.877,395.51L300.877,393.203L300.161,393.203Z" style="fill:rgb(206,32,47);fill-rule:nonzero;"/>
                </g>
                <g transform="matrix(0.921024,0,0,2.13778,394.914,-752.143)">
                    <path d="M515.138,411.621C515.303,411.621 515.449,411.607 515.449,411.423C515.449,411.264 515.29,411.244 515.158,411.244L514.899,411.244L514.899,411.621L515.138,411.621ZM515.105,411.806L514.899,411.806L514.899,412.374L514.678,412.374L514.678,411.059L515.193,411.059C515.518,411.059 515.689,411.169 515.689,411.436C515.689,411.679 515.536,411.776 515.333,411.797L515.709,412.374L515.452,412.374L515.105,411.806ZM515.139,410.804C514.638,410.804 514.244,411.195 514.244,411.715C514.244,412.241 514.638,412.633 515.139,412.633C515.636,412.633 516.036,412.241 516.036,411.715C516.036,411.195 515.636,410.804 515.139,410.804M515.139,410.561C515.752,410.561 516.297,411.027 516.297,411.715C516.297,412.406 515.752,412.873 515.139,412.873C514.531,412.873 513.984,412.406 513.984,411.715C513.984,411.027 514.531,410.561 515.139,410.561" style="fill:rgb(17,39,74);fill-rule:nonzero;"/>
                </g>
                <g transform="matrix(0.921024,0,0,2.13778,394.914,-792.038)">
                    <path d="M359.864,431.535L348.87,431.535L348.87,430.382C349.122,430.362 349.493,430.333 349.981,430.291C350.47,430.254 350.807,430.195 350.993,430.115C351.338,429.967 351.574,429.772 351.7,429.532C351.825,429.291 351.888,428.981 351.888,428.608L351.888,413.738C351.888,413.403 351.826,413.108 351.707,412.85C351.584,412.596 351.348,412.388 350.993,412.23C350.77,412.132 350.44,412.029 350.002,411.927C349.563,411.823 349.187,411.753 348.87,411.712L348.87,410.561L359.864,410.561L359.864,411.712C359.584,411.741 359.234,411.784 358.816,411.839C358.397,411.891 358.043,411.97 357.754,412.068C357.392,412.195 357.148,412.394 357.029,412.667C356.907,412.938 356.847,413.246 356.847,413.59L356.847,428.446C356.847,428.799 356.91,429.102 357.036,429.356C357.161,429.605 357.401,429.81 357.754,429.967C357.95,430.055 358.274,430.143 358.725,430.226C359.178,430.31 359.555,430.362 359.864,430.382L359.864,431.535Z" style="fill:rgb(17,39,74);fill-rule:nonzero;"/>
                </g>
                <g transform="matrix(0.921024,0,0,2.13778,394.914,-792.042)">
                    <path d="M370.367,432.113C369.156,432.113 368.027,431.952 366.979,431.633C365.932,431.313 365.045,430.935 364.319,430.503L363.356,431.536L362.167,431.536L361.985,423.953L363.187,423.953C363.457,424.677 363.803,425.433 364.222,426.235C364.639,427.035 365.124,427.751 365.674,428.384C366.241,429.044 366.877,429.582 367.579,429.997C368.284,430.414 369.106,430.62 370.045,430.62C371.311,430.62 372.283,430.293 372.959,429.637C373.633,428.981 373.971,428.156 373.971,427.157C373.971,426.339 373.684,425.652 373.113,425.095C372.541,424.537 371.653,424.055 370.45,423.65C369.668,423.382 368.948,423.134 368.294,422.908C367.635,422.682 367.02,422.448 366.442,422.209C365.11,421.648 364.121,420.844 363.474,419.797C362.827,418.752 362.502,417.583 362.502,416.29C362.502,415.472 362.671,414.685 363.006,413.929C363.341,413.175 363.83,412.496 364.471,411.894C365.085,411.333 365.872,410.873 366.832,410.517C367.792,410.163 368.835,409.985 369.962,409.985C371.06,409.985 372.089,410.148 373.048,410.473C374.008,410.798 374.762,411.124 375.312,411.448L376.163,410.563L377.38,410.563L377.492,417.716L376.29,417.716C376.01,416.948 375.683,416.158 375.304,415.355C374.929,414.549 374.53,413.879 374.11,413.344C373.655,412.773 373.127,412.316 372.533,411.976C371.935,411.634 371.236,411.463 370.436,411.463C369.431,411.463 368.608,411.764 367.973,412.367C367.334,412.968 367.014,413.714 367.014,414.602C367.014,415.441 367.289,416.127 367.846,416.661C368.398,417.194 369.263,417.662 370.436,418.068C371.127,418.314 371.829,418.559 372.545,418.806C373.264,419.054 373.9,419.29 374.459,419.518C375.81,420.07 376.836,420.834 377.54,421.804C378.242,422.774 378.595,423.982 378.595,425.422C378.595,426.33 378.394,427.208 377.994,428.058C377.594,428.907 377.052,429.612 376.375,430.174C375.628,430.796 374.766,431.276 373.789,431.61C372.812,431.944 371.671,432.113 370.367,432.113" style="fill:rgb(17,39,74);fill-rule:nonzero;"/>
                </g>
                <g transform="matrix(0.921024,0,0,2.13778,394.914,-792.042)">
                    <path d="M388.904,432.113C387.692,432.113 386.565,431.952 385.517,431.633C384.469,431.313 383.582,430.935 382.856,430.503L381.89,431.536L380.704,431.536L380.522,423.953L381.724,423.953C381.994,424.677 382.338,425.433 382.758,426.235C383.176,427.035 383.661,427.751 384.209,428.384C384.777,429.044 385.414,429.582 386.116,429.997C386.82,430.414 387.641,430.62 388.583,430.62C389.848,430.62 390.82,430.293 391.494,429.637C392.17,428.981 392.508,428.156 392.508,427.157C392.508,426.339 392.221,425.652 391.647,425.095C391.078,424.537 390.188,424.055 388.988,423.65C388.205,423.382 387.486,423.134 386.83,422.908C386.172,422.682 385.555,422.448 384.977,422.209C383.647,421.648 382.658,420.844 382.01,419.797C381.362,418.752 381.038,417.583 381.038,416.29C381.038,415.472 381.208,414.685 381.543,413.929C381.878,413.175 382.367,412.496 383.009,411.894C383.622,411.333 384.41,410.873 385.368,410.517C386.33,410.163 387.372,409.985 388.498,409.985C389.597,409.985 390.627,410.148 391.585,410.473C392.545,410.798 393.299,411.124 393.848,411.448L394.7,410.563L395.915,410.563L396.028,417.716L394.826,417.716C394.546,416.948 394.219,416.158 393.841,415.355C393.463,414.549 393.067,413.879 392.647,413.344C392.19,412.773 391.666,412.316 391.069,411.976C390.472,411.634 389.775,411.463 388.973,411.463C387.967,411.463 387.145,411.764 386.508,412.367C385.871,412.968 385.55,413.714 385.55,414.602C385.55,415.441 385.828,416.127 386.383,416.661C386.936,417.194 387.8,417.662 388.973,418.068C389.664,418.314 390.366,418.559 391.082,418.806C391.801,419.054 392.437,419.29 392.996,419.518C394.347,420.07 395.372,420.834 396.077,421.804C396.779,422.774 397.132,423.982 397.132,425.422C397.132,426.33 396.931,427.208 396.531,428.058C396.13,428.907 395.589,429.612 394.91,430.174C394.165,430.796 393.303,431.276 392.325,431.61C391.347,431.944 390.207,432.113 388.904,432.113" style="fill:rgb(17,39,74);fill-rule:nonzero;"/>
                </g>
                <g transform="matrix(0.921024,0,0,2.13778,394.914,-792.038)">
                    <path d="M410.053,431.535L399.059,431.535L399.059,430.382C399.311,430.362 399.682,430.333 400.172,430.291C400.659,430.254 400.998,430.195 401.182,430.115C401.528,429.967 401.762,429.772 401.889,429.532C402.013,429.291 402.077,428.981 402.077,428.608L402.077,413.738C402.077,413.403 402.016,413.108 401.896,412.85C401.773,412.596 401.537,412.388 401.182,412.23C400.959,412.132 400.629,412.029 400.192,411.927C399.752,411.823 399.378,411.753 399.059,411.712L399.059,410.561L410.053,410.561L410.053,411.712C409.773,411.741 409.423,411.784 409.005,411.839C408.587,411.891 408.232,411.97 407.944,412.068C407.581,412.195 407.337,412.394 407.218,412.667C407.097,412.938 407.035,413.246 407.035,413.59L407.035,428.446C407.035,428.799 407.098,429.102 407.225,429.356C407.349,429.605 407.591,429.81 407.944,429.967C408.139,430.055 408.463,430.143 408.914,430.226C409.365,430.31 409.744,430.362 410.053,430.382L410.053,431.535Z" style="fill:rgb(17,39,74);fill-rule:nonzero;"/>
                </g>
                <g transform="matrix(0.921024,0,0,2.13778,394.914,-792.042)">
                    <path d="M420.556,432.113C419.344,432.113 418.215,431.952 417.169,431.633C416.121,431.313 415.234,430.935 414.508,430.503L413.543,431.536L412.356,431.536L412.174,423.953L413.375,423.953C413.644,424.677 413.99,425.433 414.408,426.235C414.828,427.035 415.312,427.751 415.861,428.384C416.429,429.044 417.066,429.582 417.768,429.997C418.472,430.414 419.293,430.62 420.233,430.62C421.5,430.62 422.472,430.293 423.145,429.637C423.822,428.981 424.16,428.156 424.16,427.157C424.16,426.339 423.873,425.652 423.299,425.095C422.728,424.537 421.842,424.055 420.64,423.65C419.857,423.382 419.138,423.134 418.482,422.908C417.825,422.682 417.206,422.448 416.63,422.209C415.299,421.648 414.307,420.844 413.662,419.797C413.014,418.752 412.69,417.583 412.69,416.29C412.69,415.472 412.859,414.685 413.195,413.929C413.529,413.175 414.018,412.496 414.661,411.894C415.276,411.333 416.06,410.873 417.022,410.517C417.98,410.163 419.024,409.985 420.15,409.985C421.248,409.985 422.277,410.148 423.237,410.473C424.197,410.798 424.95,411.124 425.5,411.448L426.352,410.563L427.567,410.563L427.68,417.716L426.479,417.716C426.199,416.948 425.871,416.158 425.494,415.355C425.117,414.549 424.717,413.879 424.299,413.344C423.842,412.773 423.316,412.316 422.72,411.976C422.124,411.634 421.425,411.463 420.625,411.463C419.619,411.463 418.797,411.764 418.159,412.367C417.522,412.968 417.203,413.714 417.203,414.602C417.203,415.441 417.48,416.127 418.033,416.661C418.588,417.194 419.452,417.662 420.625,418.068C421.314,418.314 422.018,418.559 422.734,418.806C423.453,419.054 424.089,419.29 424.647,419.518C425.999,420.07 427.024,420.834 427.73,421.804C428.431,422.774 428.784,423.982 428.784,425.422C428.784,426.33 428.582,427.208 428.183,428.058C427.782,428.907 427.241,429.612 426.562,430.174C425.816,430.796 424.955,431.276 423.978,431.61C422.998,431.944 421.858,432.113 420.556,432.113" style="fill:rgb(17,39,74);fill-rule:nonzero;"/>
                </g>
                <g transform="matrix(0.921024,0,0,2.13778,394.914,-792.042)">
                    <path d="M439.093,432.113C437.884,432.113 436.752,431.952 435.706,431.633C434.658,431.313 433.771,430.935 433.045,430.503L432.082,431.536L430.891,431.536L430.711,423.953L431.913,423.953C432.181,424.677 432.527,425.433 432.947,426.235C433.366,427.035 433.849,427.751 434.398,428.384C434.966,429.044 435.603,429.582 436.307,429.997C437.01,430.414 437.83,430.62 438.772,430.62C440.037,430.62 441.009,430.293 441.683,429.637C442.359,428.981 442.697,428.156 442.697,427.157C442.697,426.339 442.41,425.652 441.839,425.095C441.267,424.537 440.377,424.055 439.177,423.65C438.394,423.382 437.675,423.134 437.019,422.908C436.363,422.682 435.745,422.448 435.166,422.209C433.836,421.648 432.847,420.844 432.199,419.797C431.553,418.752 431.227,417.583 431.227,416.29C431.227,415.472 431.397,414.685 431.732,413.929C432.067,413.175 432.556,412.496 433.198,411.894C433.812,411.333 434.599,410.873 435.559,410.517C436.517,410.163 437.561,409.985 438.688,409.985C439.786,409.985 440.816,410.148 441.776,410.473C442.736,410.798 443.488,411.124 444.037,411.448L444.889,410.563L446.107,410.563L446.218,417.716L445.016,417.716C444.736,416.948 444.409,416.158 444.03,415.355C443.654,414.549 443.254,413.879 442.836,413.344C442.381,412.773 441.855,412.316 441.259,411.976C440.663,411.634 439.964,411.463 439.162,411.463C438.156,411.463 437.334,411.764 436.696,412.367C436.06,412.968 435.74,413.714 435.74,414.602C435.74,415.441 436.017,416.127 436.571,416.661C437.126,417.194 437.989,417.662 439.162,418.068C439.851,418.314 440.555,418.559 441.271,418.806C441.989,419.054 442.629,419.29 443.185,419.518C444.536,420.07 445.564,420.834 446.267,421.804C446.968,422.774 447.321,423.982 447.321,425.422C447.321,426.33 447.119,427.208 446.72,428.058C446.32,428.907 445.781,429.612 445.099,430.174C444.354,430.796 443.494,431.276 442.515,431.61C441.538,431.944 440.396,432.113 439.093,432.113" style="fill:rgb(17,39,74);fill-rule:nonzero;"/>
                </g>
                <g transform="matrix(0.921024,0,0,2.13778,394.914,-792.038)">
                    <path d="M460.242,431.535L449.248,431.535L449.248,430.382C449.499,430.362 449.871,430.333 450.358,430.291C450.848,430.254 451.185,430.195 451.371,430.115C451.716,429.967 451.951,429.772 452.076,429.532C452.202,429.291 452.267,428.981 452.267,428.608L452.267,413.738C452.267,413.403 452.205,413.108 452.085,412.85C451.961,412.596 451.726,412.388 451.371,412.23C451.146,412.132 450.816,412.029 450.38,411.927C449.94,411.823 449.565,411.753 449.248,411.712L449.248,410.561L460.242,410.561L460.242,411.712C459.962,411.741 459.612,411.784 459.194,411.839C458.775,411.891 458.421,411.97 458.133,412.068C457.768,412.195 457.528,412.394 457.407,412.667C457.284,412.938 457.224,413.246 457.224,413.59L457.224,428.446C457.224,428.799 457.287,429.102 457.412,429.356C457.538,429.605 457.779,429.81 458.133,429.967C458.328,430.055 458.654,430.143 459.105,430.226C459.556,430.31 459.935,430.362 460.242,430.382L460.242,431.535Z" style="fill:rgb(17,39,74);fill-rule:nonzero;"/>
                </g>
                <g transform="matrix(0.921024,0,0,2.13778,394.914,-792.039)">
                    <path d="M475.496,416.56C475.496,414.986 475.193,413.816 474.594,413.052C473.994,412.288 472.924,411.906 471.386,411.906L470.228,411.906L470.228,421.114L470.814,421.114C472.344,421.114 473.505,420.74 474.3,419.998C475.097,419.254 475.496,418.108 475.496,416.56M480.943,415.806C480.943,416.99 480.713,418.007 480.251,418.861C479.79,419.712 479.156,420.404 478.346,420.936C477.505,421.488 476.551,421.888 475.471,422.133C474.398,422.379 473.191,422.503 471.849,422.503L470.228,422.503L470.228,428.401C470.228,428.755 470.291,429.063 470.418,429.324C470.543,429.586 470.781,429.795 471.139,429.954C471.323,430.032 471.626,430.115 472.047,430.205C472.462,430.293 472.818,430.352 473.105,430.382L473.105,431.535L462.363,431.535L462.363,430.382C462.634,430.352 462.991,430.31 463.44,430.257C463.887,430.202 464.198,430.136 464.377,430.056C464.74,429.898 464.979,429.706 465.095,429.48C465.213,429.255 465.268,428.938 465.268,428.534L465.268,413.738C465.268,413.395 465.214,413.093 465.1,412.843C464.991,412.593 464.749,412.383 464.377,412.216C464.116,412.099 463.768,411.991 463.336,411.897C462.902,411.805 462.578,411.743 462.363,411.714L462.363,410.561L473.302,410.561C475.864,410.561 477.776,410.992 479.042,411.852C480.31,412.716 480.943,414.033 480.943,415.806" style="fill:rgb(17,39,74);fill-rule:nonzero;"/>
                </g>
                <g transform="matrix(0.921024,0,0,2.13778,394.914,-792.039)">
                    <path d="M495.23,416.56C495.23,414.986 494.93,413.816 494.329,413.052C493.729,412.288 492.66,411.906 491.123,411.906L489.964,411.906L489.964,421.114L490.551,421.114C492.079,421.114 493.241,420.74 494.038,419.998C494.834,419.254 495.23,418.108 495.23,416.56M500.679,415.806C500.679,416.99 500.447,418.007 499.985,418.861C499.526,419.712 498.89,420.404 498.081,420.936C497.242,421.488 496.285,421.888 495.208,422.133C494.136,422.379 492.928,422.503 491.583,422.503L489.964,422.503L489.964,428.401C489.964,428.755 490.028,429.063 490.153,429.324C490.281,429.586 490.519,429.795 490.874,429.954C491.057,430.032 491.363,430.115 491.779,430.205C492.2,430.293 492.552,430.352 492.845,430.382L492.845,431.535L482.1,431.535L482.1,430.382C482.369,430.352 482.728,430.31 483.174,430.257C483.622,430.202 483.935,430.136 484.112,430.056C484.475,429.898 484.716,429.706 484.831,429.48C484.95,429.255 485.004,428.938 485.004,428.534L485.004,413.738C485.004,413.395 484.951,413.093 484.837,412.843C484.726,412.593 484.485,412.383 484.112,412.216C483.851,412.099 483.505,411.991 483.073,411.897C482.638,411.805 482.316,411.743 482.1,411.714L482.1,410.561L493.039,410.561C495.599,410.561 497.513,410.992 498.779,411.852C500.046,412.716 500.679,414.033 500.679,415.806" style="fill:rgb(17,39,74);fill-rule:nonzero;"/>
                </g>
                <g transform="matrix(0.921024,0,0,2.13778,394.914,-792.038)">
                    <path d="M512.827,431.535L501.834,431.535L501.834,430.382C502.085,430.362 502.456,430.333 502.946,430.291C503.435,430.254 503.77,430.195 503.958,430.115C504.304,429.967 504.537,429.772 504.663,429.532C504.79,429.291 504.853,428.981 504.853,428.608L504.853,413.738C504.853,413.403 504.791,413.108 504.671,412.85C504.549,412.596 504.311,412.388 503.958,412.23C503.736,412.132 503.403,412.029 502.965,411.927C502.528,411.823 502.15,411.753 501.834,411.712L501.834,410.561L512.827,410.561L512.827,411.712C512.549,411.741 512.2,411.784 511.78,411.839C511.361,411.891 511.007,411.97 510.72,412.068C510.356,412.195 510.114,412.394 509.993,412.667C509.871,412.938 509.81,413.246 509.81,413.59L509.81,428.446C509.81,428.799 509.874,429.102 510,429.356C510.126,429.605 510.365,429.81 510.72,429.967C510.914,430.055 511.238,430.143 511.688,430.226C512.142,430.31 512.521,430.362 512.827,430.382L512.827,431.535Z" style="fill:rgb(17,39,74);fill-rule:nonzero;"/>
                </g>
                <g transform="matrix(0.921024,0,0,2.13778,394.914,-792.032)">
                    <path d="M346.75,431.533L335.383,431.533L335.383,430.38C335.718,430.351 336.13,430.301 336.617,430.232C337.105,430.163 337.438,430.089 337.615,430.011C337.979,429.863 338.241,429.661 338.398,429.404C338.556,429.148 338.635,428.823 338.635,428.429L338.635,412.761L331.422,431.193L329.559,431.193C329.47,430.868 329.251,430.223 328.902,429.257C328.552,428.291 328.268,427.518 328.051,426.936L322.745,412.525L322.745,425.281C322.745,426.503 322.827,427.431 322.989,428.067C323.152,428.703 323.415,429.168 323.78,429.464C324.026,429.671 324.467,429.868 325.103,430.055C325.738,430.242 326.184,430.351 326.44,430.38L326.44,431.533L317.424,431.533L317.424,430.38C317.67,430.351 318.072,430.284 318.629,430.181C319.185,430.077 319.641,429.897 319.996,429.641C320.39,429.365 320.656,428.9 320.794,428.244C320.932,427.589 321.001,426.655 321.001,425.443L321.001,415.052C321.001,414.421 320.922,413.897 320.764,413.478C320.607,413.059 320.37,412.727 320.055,412.48C319.661,412.175 319.257,411.978 318.843,411.889C318.429,411.8 318.01,411.741 317.587,411.712L317.587,410.559L327.251,410.559L332.421,424.378L336.779,413.163C336.927,412.748 337.069,412.255 337.207,411.683C337.345,411.111 337.419,410.736 337.429,410.559L346.72,410.559L346.72,411.712C346.405,411.731 346.075,411.771 345.73,411.83C345.385,411.889 345.055,411.968 344.739,412.066C344.355,412.194 344.102,412.397 343.978,412.672C343.855,412.948 343.794,413.254 343.794,413.589L343.794,428.444C343.794,428.799 343.855,429.097 343.978,429.338C344.102,429.58 344.355,429.789 344.739,429.966C344.937,430.055 345.259,430.139 345.708,430.217C346.156,430.296 346.503,430.351 346.75,430.38L346.75,431.533Z" style="fill:rgb(17,39,74);fill-rule:nonzero;"/>
                </g>
                <g transform="matrix(0.921024,0,0,2.13778,394.914,-892.447)">
                    <path d="M344.214,450.206L338.073,450.206L338.073,449.584C338.204,449.573 338.401,449.561 338.659,449.536C338.916,449.522 339.089,449.479 339.185,449.437C339.385,449.364 339.521,449.253 339.597,449.126C339.665,448.996 339.708,448.823 339.708,448.62L339.708,444.713L334.862,444.713L334.862,448.535C334.862,448.722 334.896,448.88 334.975,449.022C335.051,449.169 335.181,449.282 335.371,449.364C335.473,449.403 335.648,449.448 335.891,449.499C336.137,449.547 336.335,449.573 336.49,449.584L336.49,450.206L330.35,450.206L330.35,449.584C330.486,449.581 330.681,449.561 330.943,449.533C331.201,449.502 331.385,449.468 331.506,449.426C331.696,449.352 331.831,449.25 331.902,449.109C331.981,448.971 332.015,448.801 332.015,448.609L332.015,440.58C332.015,440.385 331.984,440.229 331.916,440.105C331.854,439.975 331.71,439.864 331.506,439.771C331.353,439.7 331.153,439.633 330.898,439.582C330.647,439.522 330.463,439.491 330.35,439.48L330.35,438.858L336.49,438.858L336.49,439.48C336.326,439.491 336.128,439.519 335.897,439.565C335.67,439.604 335.492,439.644 335.371,439.675C335.161,439.746 335.023,439.859 334.958,440.011C334.893,440.161 334.862,440.331 334.862,440.489L334.862,443.887L339.708,443.887L339.707,440.58C339.707,440.385 339.671,440.229 339.6,440.105C339.532,439.975 339.394,439.864 339.184,439.771C339.043,439.703 338.862,439.649 338.633,439.59C338.398,439.534 338.218,439.497 338.073,439.48L338.073,438.858L344.214,438.858L344.214,439.48C344.044,439.491 343.849,439.511 343.631,439.548C343.422,439.585 343.233,439.621 343.058,439.675C342.854,439.746 342.721,439.859 342.648,440.006C342.586,440.156 342.551,440.32 342.551,440.489L342.552,448.535C342.552,448.73 342.586,448.891 342.648,449.022C342.721,449.16 342.854,449.27 343.058,449.364C343.182,449.414 343.374,449.462 343.62,449.502C343.858,449.553 344.058,449.573 344.214,449.584L344.214,450.206Z" style="fill:rgb(17,39,74);fill-rule:nonzero;"/>
                </g>
                <g transform="matrix(0.921024,0,0,2.13778,394.914,-892.444)">
                    <path d="M355.806,441.752L355.197,441.752C355.043,441.322 354.777,440.886 354.399,440.446C354.019,440.005 353.643,439.743 353.272,439.665C353.111,439.628 352.889,439.605 352.603,439.596C352.317,439.589 352.081,439.585 351.896,439.585L350.248,439.585L350.248,443.96L351.416,443.96C351.709,443.96 351.975,443.926 352.215,443.855C352.456,443.789 352.674,443.654 352.87,443.455C352.993,443.333 353.118,443.117 353.243,442.809C353.367,442.499 353.451,442.23 353.486,442L354.095,442L354.095,446.735L353.486,446.735C353.455,446.511 353.373,446.229 353.243,445.89C353.112,445.552 352.989,445.318 352.87,445.19C352.696,444.998 352.487,444.867 352.247,444.796C352.008,444.723 351.729,444.686 351.416,444.686L350.248,444.686L350.248,447.958C350.248,448.299 350.274,448.57 350.326,448.769C350.375,448.97 350.469,449.123 350.609,449.229C350.741,449.331 350.924,449.397 351.156,449.431C351.387,449.461 351.704,449.477 352.104,449.477C352.289,449.477 352.514,449.475 352.777,449.469C353.038,449.463 353.266,449.449 353.464,449.421C353.686,449.395 353.896,449.355 354.091,449.302C354.285,449.247 354.43,449.172 354.526,449.069C354.782,448.808 355.07,448.41 355.389,447.874C355.711,447.339 355.921,446.937 356.022,446.671L356.606,446.671L356.391,450.206L345.746,450.206L345.746,449.583C345.895,449.57 346.098,449.549 346.354,449.518C346.609,449.486 346.791,449.449 346.897,449.405C347.1,449.32 347.237,449.213 347.304,449.082C347.374,448.951 347.408,448.785 347.408,448.582L347.408,440.577C347.408,440.386 347.379,440.226 347.321,440.101C347.262,439.976 347.121,439.862 346.897,439.761C346.758,439.696 346.564,439.638 346.314,439.585C346.063,439.531 345.874,439.497 345.746,439.482L345.746,438.858L355.806,438.858L355.806,441.752Z" style="fill:rgb(17,39,74);fill-rule:nonzero;"/>
                </g>
                <g transform="matrix(0.921024,0,0,2.13778,394.914,-892.451)">
                    <path d="M328.817,442.107L328.193,442.107C328.029,441.623 327.764,441.102 327.399,440.548C327.036,439.992 326.697,439.694 326.39,439.651C326.22,439.631 326.008,439.611 325.76,439.596C325.51,439.579 325.296,439.572 325.114,439.572L324.738,439.572L324.738,448.472C324.738,448.664 324.773,448.834 324.843,448.979C324.911,449.126 325.048,449.243 325.251,449.328C325.373,449.376 325.565,449.425 325.823,449.476C326.08,449.527 326.301,449.562 326.482,449.584L326.482,450.207L320.156,450.207L320.156,449.584C320.311,449.569 320.529,449.546 320.81,449.516C321.088,449.486 321.278,449.451 321.378,449.407C321.588,449.323 321.725,449.208 321.796,449.064C321.865,448.92 321.9,448.751 321.9,448.552L321.9,439.572L321.525,439.572C321.344,439.572 321.127,439.579 320.878,439.596C320.629,439.611 320.419,439.631 320.248,439.651C319.939,439.694 319.603,439.992 319.239,440.548C318.874,441.102 318.609,441.623 318.445,442.107L317.822,442.107L317.822,438.859L328.817,438.859L328.817,442.107Z" style="fill:rgb(17,39,74);fill-rule:nonzero;"/>
                </g>
                <g transform="matrix(0.921024,0,0,2.13778,394.914,-891.781)">
                    <path d="M374.929,439.17C374.774,439.186 374.552,439.223 374.26,439.277C373.97,439.334 373.726,439.431 373.529,439.57C373.326,439.704 373.184,439.944 373.101,440.29C373.019,440.637 372.978,441.157 372.978,441.85L372.978,446.071C372.978,447.314 372.556,448.314 371.713,449.071C370.872,449.828 369.757,450.207 368.37,450.207C366.757,450.207 365.506,449.842 364.621,449.112C363.736,448.379 363.293,447.363 363.293,446.056L363.293,440.25C363.293,440.064 363.258,439.904 363.184,439.77C363.113,439.636 362.976,439.517 362.772,439.411C362.635,439.341 362.465,439.286 362.26,439.243C362.059,439.201 361.894,439.17 361.765,439.154L361.765,438.546L367.715,438.546L367.716,439.154C367.544,439.165 367.372,439.184 367.195,439.214C367.02,439.243 366.841,439.288 366.66,439.347C366.456,439.411 366.322,439.517 366.253,439.666C366.183,439.815 366.149,439.983 366.149,440.17L366.149,445.897C366.149,447.022 366.396,447.84 366.89,448.35C367.385,448.864 368.105,449.119 369.047,449.119C369.973,449.119 370.699,448.836 371.228,448.271C371.754,447.707 372.018,446.874 372.018,445.776L372.018,441.93C372.018,441.247 371.971,440.737 371.879,440.398C371.785,440.059 371.643,439.815 371.45,439.666C371.311,439.548 371.07,439.442 370.727,439.347C370.382,439.251 370.141,439.192 370.003,439.17L370.003,438.546L374.929,438.546L374.929,439.17Z" style="fill:rgb(17,39,74);fill-rule:nonzero;"/>
                </g>
                <g transform="matrix(0.921024,0,0,2.13778,394.914,-892.313)">
                    <path d="M389.816,439.419C389.667,439.435 389.454,439.465 389.177,439.507C388.9,439.55 388.649,439.654 388.425,439.819C388.228,439.962 388.088,440.209 388.005,440.558C387.923,440.908 387.882,441.42 387.882,442.099L387.882,450.207L386.458,450.207L379.388,441.434L379.388,446.759C379.388,447.422 379.432,447.923 379.521,448.268C379.609,448.611 379.751,448.864 379.949,449.023C380.091,449.141 380.321,449.245 380.636,449.335C380.951,449.426 381.201,449.487 381.388,449.52L381.388,450.143L376.51,450.143L376.51,449.52C376.717,449.504 376.957,449.464 377.226,449.404C377.494,449.341 377.721,449.247 377.902,449.12C378.11,448.964 378.252,448.732 378.328,448.42C378.407,448.109 378.445,447.584 378.445,446.848L378.445,441.475C378.445,441.207 378.404,440.957 378.322,440.719C378.239,440.482 378.11,440.278 377.934,440.107C377.746,439.926 377.532,439.783 377.29,439.679C377.046,439.576 376.77,439.495 376.462,439.435L376.462,438.795L380.733,438.795L386.938,446.47L386.938,442.177C386.938,441.495 386.893,440.986 386.801,440.654C386.711,440.32 386.567,440.076 386.371,439.914C386.214,439.794 385.986,439.688 385.683,439.601C385.379,439.512 385.133,439.453 384.946,439.419L384.946,438.795L389.816,438.795L389.816,439.419Z" style="fill:rgb(17,39,74);fill-rule:nonzero;"/>
                </g>
                <g transform="matrix(0.921024,0,0,2.13778,394.914,-892.45)">
                    <path d="M397.642,450.207L391.348,450.207L391.348,449.584C391.493,449.572 391.705,449.557 391.984,449.535C392.265,449.514 392.458,449.483 392.564,449.441C392.762,449.36 392.895,449.254 392.968,449.124C393.04,448.993 393.076,448.827 393.076,448.624L393.076,440.58C393.076,440.398 393.042,440.239 392.972,440.098C392.901,439.962 392.766,439.848 392.564,439.764C392.436,439.71 392.248,439.656 391.996,439.598C391.746,439.543 391.53,439.505 391.348,439.483L391.348,438.859L397.642,438.859L397.642,439.483C397.482,439.499 397.283,439.522 397.042,439.552C396.802,439.58 396.599,439.622 396.433,439.675C396.227,439.745 396.087,439.853 396.017,439.999C395.95,440.145 395.914,440.311 395.914,440.499L395.914,448.537C395.914,448.728 395.951,448.892 396.021,449.027C396.095,449.163 396.232,449.274 396.433,449.36C396.547,449.407 396.731,449.454 396.99,449.5C397.249,449.546 397.466,449.572 397.642,449.584L397.642,450.207Z" style="fill:rgb(17,39,74);fill-rule:nonzero;"/>
                </g>
                <g transform="matrix(0.921024,0,0,2.13778,394.914,-892.174)">
                    <path d="M412.496,439.37C412.321,439.386 412.152,439.418 411.992,439.466C411.833,439.513 411.667,439.589 411.496,439.689C411.268,439.824 411.09,439.965 410.965,440.117C410.841,440.269 410.716,440.48 410.592,440.746C410.428,441.114 410.196,441.65 409.898,442.356C409.598,443.062 409.258,443.867 408.873,444.767C408.532,445.58 408.164,446.467 407.765,447.432C407.37,448.396 406.989,449.321 406.626,450.206L405.02,450.206C404.273,448.378 403.513,446.52 402.739,444.632C401.967,442.745 401.423,441.433 401.11,440.698C400.985,440.432 400.869,440.229 400.753,440.093C400.638,439.958 400.455,439.818 400.206,439.675C400.025,439.574 399.864,439.503 399.725,439.462C399.586,439.423 399.403,439.386 399.175,439.354L399.175,438.73L405.323,438.73L405.323,439.339C404.746,439.407 404.358,439.482 404.153,439.557C403.946,439.636 403.846,439.733 403.846,439.851C403.846,439.909 403.853,439.971 403.871,440.038C403.891,440.105 403.918,440.194 403.956,440.306C404.126,440.774 404.435,441.539 404.885,442.602C405.333,443.666 405.995,445.284 406.876,447.463C407.413,446.139 407.861,445.017 408.217,444.1C408.575,443.184 408.888,442.375 409.163,441.673C409.295,441.332 409.405,441.014 409.493,440.716C409.581,440.422 409.625,440.198 409.625,440.05C409.625,439.88 409.503,439.737 409.258,439.621C409.013,439.507 408.56,439.423 407.898,439.37L407.898,438.73L412.496,438.73L412.496,439.37Z" style="fill:rgb(17,39,74);fill-rule:nonzero;"/>
                </g>
                <g transform="matrix(0.921024,0,0,2.13778,394.914,-892.444)">
                    <path d="M424.089,441.752L423.48,441.752C423.326,441.322 423.06,440.886 422.681,440.446C422.302,440.005 421.926,439.743 421.555,439.665C421.394,439.628 421.171,439.605 420.886,439.596C420.6,439.589 420.364,439.585 420.179,439.585L418.531,439.585L418.531,443.96L419.699,443.96C419.992,443.96 420.258,443.926 420.498,443.855C420.739,443.789 420.957,443.654 421.153,443.455C421.276,443.333 421.401,443.117 421.526,442.809C421.65,442.499 421.734,442.23 421.769,442L422.378,442L422.378,446.735L421.769,446.735C421.738,446.511 421.656,446.229 421.526,445.89C421.394,445.552 421.271,445.318 421.153,445.19C420.979,444.998 420.77,444.867 420.53,444.796C420.291,444.723 420.012,444.686 419.699,444.686L418.531,444.686L418.531,447.958C418.531,448.299 418.557,448.57 418.608,448.769C418.658,448.97 418.752,449.123 418.892,449.229C419.024,449.331 419.207,449.397 419.439,449.431C419.67,449.461 419.987,449.477 420.387,449.477C420.571,449.477 420.797,449.475 421.059,449.469C421.321,449.463 421.549,449.449 421.746,449.421C421.969,449.395 422.179,449.355 422.374,449.302C422.568,449.247 422.713,449.172 422.809,449.069C423.065,448.808 423.353,448.41 423.672,447.874C423.994,447.339 424.203,446.937 424.305,446.671L424.889,446.671L424.673,450.206L414.029,450.206L414.029,449.583C414.178,449.57 414.381,449.549 414.637,449.518C414.892,449.486 415.074,449.449 415.18,449.405C415.382,449.32 415.52,449.213 415.587,449.082C415.657,448.951 415.691,448.785 415.691,448.582L415.691,440.577C415.691,440.385 415.662,440.226 415.604,440.101C415.545,439.976 415.404,439.862 415.18,439.761C415.041,439.696 414.847,439.638 414.597,439.585C414.346,439.531 414.157,439.497 414.029,439.482L414.029,438.858L424.089,438.858L424.089,441.752Z" style="fill:rgb(17,39,74);fill-rule:nonzero;"/>
                </g>
                <g transform="matrix(0.921024,0,0,2.13778,394.914,-892.45)">
                    <path d="M433.782,441.771C433.782,441.014 433.571,440.46 433.147,440.111C432.723,439.762 432.119,439.588 431.334,439.588L430.704,439.588L430.704,444.337L431.312,444.337C432.095,444.337 432.704,444.133 433.135,443.721C433.568,443.311 433.782,442.66 433.782,441.771M439.229,450.206L434.874,450.206C434.123,449.054 433.499,448.139 433,447.457C432.501,446.773 431.883,445.985 431.142,445.09L430.704,445.09L430.704,448.536C430.704,448.728 430.739,448.891 430.813,449.024C430.883,449.158 431.02,449.269 431.224,449.359C431.325,449.401 431.484,449.446 431.7,449.491C431.917,449.537 432.101,449.568 432.255,449.584L432.255,450.206L426.202,450.206L426.202,449.584C426.356,449.568 426.56,449.545 426.813,449.516C427.066,449.486 427.246,449.45 427.353,449.408C427.557,449.322 427.692,449.215 427.762,449.083C427.829,448.952 427.864,448.787 427.864,448.583L427.864,440.579C427.864,440.388 427.836,440.226 427.777,440.098C427.718,439.971 427.577,439.859 427.353,439.763C427.182,439.695 426.982,439.636 426.749,439.588C426.518,439.539 426.335,439.504 426.202,439.483L426.202,438.86L432.566,438.86C433.99,438.86 435.071,439.081 435.81,439.527C436.548,439.972 436.917,440.647 436.917,441.547C436.917,442.342 436.69,442.98 436.233,443.462C435.778,443.945 435.083,444.321 434.151,444.593C434.513,445.063 434.935,445.607 435.419,446.225C435.901,446.843 436.402,447.476 436.925,448.121C437.091,448.328 437.317,448.582 437.601,448.883C437.885,449.185 438.138,449.37 438.358,449.44C438.479,449.476 438.636,449.509 438.825,449.535C439.013,449.562 439.148,449.579 439.229,449.584L439.229,450.206Z" style="fill:rgb(17,39,74);fill-rule:nonzero;"/>
                </g>
                <g transform="matrix(0.921024,0,0,2.13778,394.914,-892.447)">
                    <path d="M445.139,450.518C444.445,450.518 443.799,450.43 443.199,450.257C442.6,450.084 442.091,449.882 441.676,449.647L441.124,450.206L440.444,450.206L440.342,446.103L441.028,446.103C441.184,446.494 441.379,446.905 441.619,447.338C441.86,447.772 442.136,448.159 442.453,448.501C442.777,448.857 443.142,449.149 443.544,449.373C443.945,449.598 444.415,449.711 444.953,449.711C445.679,449.711 446.236,449.533 446.622,449.177C447.009,448.824 447.202,448.377 447.202,447.837C447.202,447.394 447.038,447.022 446.709,446.721C446.382,446.42 445.874,446.159 445.187,445.939C444.738,445.794 444.328,445.66 443.951,445.537C443.576,445.415 443.223,445.289 442.891,445.16C442.13,444.855 441.562,444.419 441.191,443.855C440.821,443.29 440.635,442.657 440.635,441.957C440.635,441.514 440.732,441.088 440.925,440.681C441.115,440.273 441.396,439.905 441.765,439.579C442.115,439.275 442.565,439.028 443.115,438.835C443.664,438.642 444.263,438.547 444.906,438.547C445.534,438.547 446.123,438.634 446.675,438.811C447.222,438.987 447.655,439.161 447.969,439.337L448.456,438.858L449.153,438.858L449.217,442.728L448.529,442.728C448.368,442.311 448.182,441.886 447.966,441.45C447.749,441.014 447.521,440.652 447.281,440.364C447.02,440.056 446.72,439.807 446.378,439.622C446.037,439.439 445.636,439.346 445.177,439.346C444.601,439.346 444.133,439.509 443.767,439.835C443.401,440.16 443.219,440.564 443.219,441.045C443.219,441.499 443.379,441.87 443.695,442.157C444.012,442.446 444.506,442.7 445.177,442.919C445.574,443.053 445.975,443.186 446.386,443.319C446.796,443.453 447.162,443.581 447.481,443.703C448.255,444.002 448.842,444.414 449.245,444.941C449.648,445.466 449.849,446.119 449.849,446.898C449.85,447.39 449.735,447.864 449.505,448.324C449.276,448.784 448.967,449.165 448.577,449.47C448.152,449.805 447.658,450.064 447.098,450.246C446.539,450.428 445.885,450.518 445.139,450.518" style="fill:rgb(17,39,74);fill-rule:nonzero;"/>
                </g>
                <g transform="matrix(0.921024,0,0,2.13778,394.914,-892.45)">
                    <path d="M457.658,450.207L451.364,450.207L451.364,449.584C451.51,449.572 451.722,449.557 452,449.535C452.282,449.514 452.475,449.483 452.582,449.441C452.779,449.36 452.911,449.254 452.985,449.124C453.057,448.994 453.092,448.827 453.092,448.624L453.092,440.58C453.092,440.398 453.057,440.239 452.989,440.098C452.92,439.962 452.783,439.848 452.582,439.764C452.452,439.71 452.263,439.656 452.012,439.598C451.761,439.543 451.547,439.505 451.364,439.483L451.364,438.859L457.658,438.859L457.658,439.483C457.498,439.499 457.299,439.522 457.059,439.552C456.819,439.58 456.615,439.622 456.452,439.675C456.243,439.745 456.105,439.853 456.035,439.999C455.966,440.145 455.931,440.311 455.931,440.499L455.931,448.537C455.931,448.728 455.967,448.892 456.038,449.027C456.111,449.163 456.249,449.274 456.452,449.36C456.564,449.407 456.748,449.454 457.006,449.5C457.265,449.546 457.482,449.572 457.658,449.584L457.658,450.207Z" style="fill:rgb(17,39,74);fill-rule:nonzero;"/>
                </g>
                <g transform="matrix(0.921024,0,0,2.13778,394.914,-892.451)">
                    <path d="M470.362,442.107L469.738,442.107C469.574,441.623 469.309,441.102 468.944,440.548C468.581,439.992 468.242,439.694 467.935,439.651C467.765,439.631 467.553,439.611 467.305,439.596C467.055,439.579 466.841,439.572 466.659,439.572L466.283,439.572L466.283,448.472C466.283,448.664 466.318,448.834 466.388,448.98C466.457,449.126 466.593,449.243 466.796,449.328C466.918,449.376 467.11,449.425 467.368,449.476C467.625,449.527 467.846,449.562 468.027,449.584L468.027,450.207L461.701,450.207L461.701,449.584C461.856,449.569 462.074,449.546 462.355,449.516C462.633,449.486 462.823,449.451 462.923,449.407C463.133,449.323 463.27,449.208 463.341,449.064C463.41,448.92 463.445,448.751 463.445,448.552L463.445,439.572L463.07,439.572C462.889,439.572 462.672,439.579 462.423,439.596C462.174,439.611 461.964,439.631 461.793,439.651C461.484,439.694 461.148,439.992 460.784,440.548C460.419,441.102 460.154,441.623 459.99,442.107L459.367,442.107L459.367,438.859L470.362,438.859L470.362,442.107Z" style="fill:rgb(17,39,74);fill-rule:nonzero;"/>
                </g>
                <g transform="matrix(0.921024,0,0,2.13778,394.914,-892.45)">
                    <path d="M484.954,439.483C484.762,439.505 484.587,439.54 484.427,439.588C484.267,439.635 484.117,439.702 483.971,439.787C483.742,439.914 483.539,440.078 483.361,440.278C483.181,440.481 483.008,440.703 482.838,440.946C482.492,441.453 482.128,442.004 481.749,442.598C481.368,443.193 480.953,443.848 480.507,444.561C480.213,445.014 480.035,445.362 479.969,445.605C479.901,445.848 479.868,446.267 479.868,446.864L479.868,448.473C479.868,448.663 479.904,448.831 479.976,448.975C480.048,449.12 480.185,449.237 480.388,449.327C480.479,449.364 480.67,449.414 480.964,449.475C481.257,449.535 481.474,449.573 481.61,449.584L481.61,450.207L475.286,450.207L475.286,449.584C475.435,449.573 475.65,449.551 475.929,449.52C476.209,449.487 476.404,449.45 476.519,449.407C476.715,449.322 476.848,449.209 476.921,449.068C476.994,448.927 477.03,448.755 477.03,448.551L477.03,446.553C477.03,446.376 477.026,446.223 477.021,446.089C477.016,445.956 476.996,445.845 476.965,445.753C476.927,445.652 476.863,445.523 476.773,445.365C476.683,445.208 476.564,445.005 476.421,444.753C476.011,444.033 475.614,443.351 475.23,442.705C474.845,442.061 474.481,441.456 474.134,440.892C473.953,440.598 473.77,440.361 473.586,440.183C473.402,440.005 473.213,439.86 473.023,439.747C472.879,439.667 472.703,439.606 472.497,439.564C472.294,439.52 472.108,439.495 471.943,439.483L471.943,438.859L478.444,438.859L478.444,439.483C477.849,439.499 477.448,439.541 477.24,439.607C477.034,439.673 476.931,439.766 476.931,439.883C476.931,439.942 476.968,440.058 477.045,440.235C477.122,440.411 477.26,440.683 477.456,441.05C477.638,441.397 477.903,441.873 478.251,442.481C478.601,443.087 479.022,443.799 479.511,444.613C480.522,443.01 481.218,441.889 481.596,441.254C481.973,440.616 482.162,440.226 482.162,440.083C482.162,439.902 482.052,439.764 481.828,439.667C481.606,439.571 481.245,439.511 480.746,439.483L480.746,438.859L484.954,438.859L484.954,439.483Z" style="fill:rgb(17,39,74);fill-rule:nonzero;"/>
                </g>
                <g transform="matrix(0.921024,0,0,2.13778,394.914,-892.448)">
                    <path d="M499.511,440.122C500.072,440.634 500.515,441.252 500.843,441.977C501.171,442.702 501.335,443.529 501.335,444.456C501.335,445.283 501.196,446.069 500.919,446.815C500.642,447.562 500.241,448.204 499.719,448.742C499.17,449.302 498.526,449.738 497.784,450.05C497.043,450.362 496.161,450.518 495.137,450.518C494.311,450.518 493.53,450.382 492.794,450.11C492.059,449.838 491.411,449.444 490.851,448.926C490.297,448.42 489.857,447.804 489.532,447.079C489.206,446.354 489.044,445.547 489.044,444.656C489.044,443.728 489.202,442.888 489.519,442.133C489.837,441.379 490.272,440.732 490.827,440.194C491.376,439.666 492.027,439.26 492.782,438.975C493.537,438.689 494.34,438.547 495.193,438.547C496.041,438.547 496.837,438.685 497.58,438.962C498.324,439.24 498.968,439.626 499.511,440.122M497.456,448.244C497.696,447.759 497.87,447.209 497.976,446.594C498.082,445.98 498.136,445.286 498.136,444.512C498.136,443.855 498.089,443.216 497.996,442.594C497.903,441.972 497.744,441.418 497.52,440.932C497.291,440.446 496.987,440.056 496.608,439.763C496.23,439.469 495.758,439.322 495.193,439.322C494.228,439.322 493.495,439.78 492.994,440.696C492.493,441.612 492.242,442.905 492.242,444.576C492.242,445.286 492.297,445.956 492.406,446.587C492.516,447.217 492.688,447.767 492.922,448.237C493.162,448.712 493.466,449.081 493.834,449.346C494.201,449.61 494.655,449.742 495.193,449.742C495.721,449.742 496.174,449.609 496.552,449.342C496.931,449.075 497.233,448.709 497.456,448.244" style="fill:rgb(17,39,74);fill-rule:nonzero;"/>
                </g>
                <g transform="matrix(0.921024,0,0,2.13778,394.914,-892.45)">
                    <path d="M512.429,441.89L511.805,441.89C511.651,441.449 511.377,440.98 510.986,440.483C510.596,439.987 510.224,439.714 509.873,439.666C509.713,439.645 509.5,439.627 509.234,439.611C508.967,439.595 508.723,439.587 508.499,439.587L506.735,439.587L506.735,444.033L507.863,444.033C508.182,444.033 508.459,443.997 508.694,443.925C508.929,443.853 509.136,443.724 509.318,443.537C509.451,443.404 509.58,443.182 509.706,442.869C509.83,442.558 509.907,442.29 509.934,442.066L510.542,442.066L510.542,446.84L509.934,446.84C509.913,446.6 509.83,446.308 509.686,445.964C509.542,445.621 509.419,445.393 509.318,445.281C509.163,445.11 508.966,444.984 508.726,444.901C508.486,444.818 508.198,444.777 507.863,444.777L506.735,444.777L506.735,448.535C506.735,448.728 506.771,448.891 506.843,449.027C506.915,449.163 507.052,449.274 507.255,449.359C507.372,449.407 507.533,449.451 507.739,449.491C507.944,449.531 508.148,449.562 508.35,449.583L508.35,450.207L502.232,450.207L502.232,449.583C502.387,449.567 502.593,449.544 502.848,449.515C503.104,449.486 503.283,449.45 503.384,449.407C503.576,449.333 503.709,449.229 503.784,449.095C503.858,448.962 503.896,448.791 503.896,448.584L503.896,440.578C503.896,440.397 503.863,440.239 503.796,440.103C503.729,439.966 503.592,439.853 503.384,439.763C503.235,439.699 503.037,439.64 502.792,439.587C502.547,439.533 502.361,439.499 502.232,439.483L502.232,438.859L512.429,438.859L512.429,441.89Z" style="fill:rgb(17,39,74);fill-rule:nonzero;"/>
                </g>
            </g>
        </g>
    </g>
</svg>
